<svg xmlns="http://www.w3.org/2000/svg" width="224" height="190" viewBox="0 0 224 190">
<defs><linearGradient id="bg" x1="0" y1="0" x2="1" y2="1"><stop stop-color="#301817"/><stop offset="1" stop-color="#12090a"/></linearGradient><radialGradient id="g" cx="50%" cy="50%" r="62%"><stop stop-color="#ff9b62" stop-opacity=".32"/><stop offset="1" stop-color="#ff9b62" stop-opacity="0"/></radialGradient><filter id="blur"><feGaussianBlur stdDeviation="4"/></filter></defs>
<rect width="224" height="190" rx="10" fill="url(#bg)"/><circle cx="112" cy="95" r="86" fill="url(#g)"/>
<g fill="none" stroke="#a7443a" opacity=".22"><path d="M20 94 H204"/><path d="M112 18 V172"/><circle cx="112" cy="94" r="58"/></g>
<path d="M36 150 L184 40" stroke="#ff9a62" stroke-width="24" opacity=".14" filter="url(#blur)"/><path d="M36 150 L184 40" stroke="#ffd2ad" stroke-width="7" stroke-linecap="round"/>
<g fill="none" stroke="#ffad72" stroke-linecap="round" stroke-linejoin="round"><path d="M112 94 L80 56 L94 30" stroke-width="5"/><path d="M112 94 L144 60 L174 42" stroke-width="5"/><path d="M112 94 L148 118 L188 110" stroke-width="5"/><path d="M112 94 L84 126 L52 148" stroke-width="5"/><path d="M112 94 L110 138 L122 164" stroke-width="4"/></g>
<g fill="#fff0dd"><circle cx="112" cy="94" r="7"/><path d="M72 52 l16 -8 -4 17 z"/><path d="M146 116 l18 -2 -10 13 z"/></g>
</svg>