<svg xmlns="http://www.w3.org/2000/svg" width="224" height="190" viewBox="0 0 224 190">
<defs><linearGradient id="bg" x1="0" y1="0" x2="1" y2="1"><stop stop-color="#0b2029"/><stop offset="1" stop-color="#071017"/></linearGradient><radialGradient id="glow" cx="54%" cy="48%" r="58%"><stop stop-color="#9ff2ff" stop-opacity=".34"/><stop offset="1" stop-color="#9ff2ff" stop-opacity="0"/></radialGradient><filter id="blur"><feGaussianBlur stdDeviation="5"/></filter></defs>
<rect width="224" height="190" rx="10" fill="url(#bg)"/><circle cx="120" cy="92" r="84" fill="url(#glow)"/><g opacity=".22" stroke="#78d9e9" fill="none"><circle cx="112" cy="96" r="54"/><circle cx="112" cy="96" r="38"/><path d="M24 150 H198 M28 40 H152"/></g>
<g fill="none" stroke-linecap="round"><path d="M26 150 L174 42" stroke="#7de7ff" stroke-width="24" opacity=".16" filter="url(#blur)"/><path d="M58 160 L205 60" stroke="#9ff2ff" stroke-width="18" opacity=".12" filter="url(#blur)"/><path d="M26 150 L174 42" stroke="#dffcff" stroke-width="7"/><path d="M58 160 L205 60" stroke="#8eeeff" stroke-width="5"/><path d="M92 132 L148 84" stroke="#ffffff" stroke-width="2.5" opacity=".9"/></g>
<g fill="#dffcff"><path d="M172 36 l18 3 -12 13 z"/><path d="M203 54 l14 3 -10 10 z"/><circle cx="112" cy="96" r="5"/></g>
</svg>